# xmcd
#
# Track frame offsets:
#	150
#	29341
#	52708
#	81719
#	101542
#	145862
#	175790
#	208955
#	247656
#	296712
#
# Disc length: 4381 seconds
#
# Revision: 1
# Processed by: cddbd v1.5.2PL0 Copyright (c) Steve Scherf et al.
# Submitted via: audiograbber 1.83.01
#
DISCID=8a111b0a
DTITLE=Grateful Dead - 71-02-24 Capitol Theatre, Port Chester NY
DYEAR=1900
DGENRE=
TTITLE0=Casey Jones
TTITLE1=Me and My Uncle
TTITLE2=Cumberland Blues
TTITLE3=Next Time You See Me
TTITLE4=Bird Song
TTITLE5=Me and Bobby McGee
TTITLE6=Bertha
TTITLE7=Hard To Handle
TTITLE8=Loser
TTITLE9=Playing In The Band
EXTD=
EXTT0=
EXTT1=
EXTT2=
EXTT3=
EXTT4=
EXTT5=
EXTT6=
EXTT7=
EXTT8=
EXTT9=
PLAYORDER=
